# AST/ASF file generated using VICON BodyLanguage
# -----------------------------------------------
:version 1.10
:name VICON
:units
  mass 1.0
  length 0.45
  angle deg
:documentation
   .ast/.asf automatically generated from VICON data using
   VICON BodyBuilder and BodyLanguage model FoxedUp or BRILLIANT.MOD
:root
   order TX TY TZ RX RY RZ
   axis XYZ
   position 0 0 0  
   orientation 0 0 0 
:bonedata
  begin
     id 1 
     name lhipjoint
     direction 0.677091 -0.635792 0.370561 
     length 2.74323 
     axis 0 0 0  XYZ
  end
  begin
     id 2 
     name lfemur
     direction 0.34202 -0.939693 0  
     length 7.44995  
     axis 0 0 20  XYZ
    dof rx ry rz
    limits (-160.0 20.0)
           (-70.0 70.0)
           (-60.0 70.0)
  end
  begin
     id 3 
     name ltibia
     direction 0.34202 -0.939693 0   
     length 7.34467   
     axis 0 0 20   XYZ
    dof rx
    limits (-10.0 170.0)
  end
  begin
     id 4 
     name lfoot
     direction 0.101953 -0.280114 0.954537   
     length 1.72105   
     axis -90 7.62852e-016 20   XYZ
    dof rx rz
    limits (-45.0 90.0)
           (-70.0 20.0)
  end
  begin
     id 5 
     name ltoes
     direction 1.53537e-011 -4.21915e-011 1   
     length 0.865872   
     axis -90 7.62852e-016 20   XYZ
    dof rx
    limits (-90.0 20.0)
  end
  begin
     id 6 
     name rhipjoint
     direction -0.695735 -0.620586 0.361699   
     length 2.81045  
     axis 0 0 0  XYZ 
  end
  begin
     id 7 
     name rfemur
     direction -0.34202 -0.939693 0   
     length 7.29387   
     axis 0 0 -20   XYZ
    dof rx ry rz
    limits (-160.0 20.0)
           (-70.0 70.0)
           (-70.0 60.0)
  end
  begin
     id 8 
     name rtibia
     direction -0.34202 -0.939693 0   
     length 7.44935   
     axis 0 0 -20   XYZ
    dof rx
    limits (-10.0 170.0)
 end
 begin
     id 9 
     name rfoot
     direction -0.104163 -0.286184 0.952496   
     length 1.77731  
     axis -90 -7.62852e-016 -20   XYZ
    dof rx rz
    limits (-45.0 90.0)
           (-20.0 70.0)
  end
  begin
     id 10 
     name rtoes
     direction -1.5355e-011 -4.21888e-011 1   
     length 0.892424   
     axis -90 -7.62852e-016 -20   XYZ
    dof rx
    limits (-90.0 20.0)
  end
  begin
     id 11 
     name lowerback
     direction 0.0100202 0.997226 -0.0737589   
     length 2.16892   
     axis 0 0 0   XYZ
    dof rx ry rz
    limits (-20.0 45.0)
           (-30.0 30.0)
           (-30.0 30.0)
  end
  begin
     id 12 
     name upperback
     direction 0.00432398 0.999988 -0.00215019   
     length 2.17326   
     axis 0 0 0   XYZ
    dof rx ry rz
    limits (-20.0 45.0)
           (-30.0 30.0)
           (-30.0 30.0)
  end
  begin
     id 13 
     name thorax
     direction -0.00195047 0.999485 0.0320434   
     length 2.18139   
     axis 0 0 0   XYZ
    dof rx ry rz
    limits (-20.0 45.0)
           (-30.0 30.0)
           (-30.0 30.0)
  end
  begin
     id 14 
     name lowerneck
     direction 0.00782762 0.986241 0.165128   
     length 1.88415   
     axis 0 0 0   XYZ
    dof rx ry rz
    limits (-20.0 45.0)
           (-30.0 30.0)
           (-30.0 30.0)
  end
  begin
     id 15 
     name upperneck
     direction 0.00988667 0.981098 -0.193258   
     length 1.9242   
     axis 0 0 0   XYZ
    dof rx ry rz
    limits (-20.0 45.0)
           (-30.0 30.0)
           (-30.0 30.0)
  end
  begin
     id 16
     name head
     direction 0.00252199 0.996513 -0.0833958  
     length 1.93887  
     axis 0 0 0   XYZ
    dof rx ry rz
    limits (-20.0 45.0)
           (-30.0 30.0)
           (-30.0 30.0)
  end
  begin
     id 17 
     name lclavicle
     direction 0.929492 0.368193 -0.0218667  
     length 3.5955  
     axis 0 0 0   XYZ
    dof ry rz
    limits (-20.0 10.0)
           (0.0 20.0)
  end
  begin
     id 18 
     name lhumerus
     direction 1 -4.48972e-011 1.41911e-027   
     length 5.2795   
     axis 180 -30 -90   XYZ
    dof rx ry rz
    limits (-60.0 90.0)
           (-90.0 90.0)
           (-90.0 90.0)
  end
  begin
     id 19
     name lradius
     direction 1 -4.48963e-011 7.05772e-027   
     length 3.53504   
     axis 180 -30 -90   XYZ
    dof rx
    limits (-10.0 170.0)
  end
  begin
     id 20
     name lwrist
     direction 1 -4.48957e-011 9.54866e-027   
     length 1.76752   
     axis -7.69462e-015 90 90   XYZ
    dof ry
    limits (-180.0 0.0)
 end
  begin
     id 21 
     name lhand
     direction 1 -4.48979e-011 1.90973e-026   
     length 0.667948   
     axis -1.21857e-014 90 90   XYZ
    dof rx rz
    limits (-90.0 90.0)
           (-45.0 45.0)
  end
  begin
     id 22 
     name lfingers
     direction 1 -4.48987e-011 3.81946e-026   
     length 0.538517   
     axis -2.43714e-014 90 90   XYZ
    dof rx
    limits (0.0 90.0)
  end
  begin
     id 23
     name lthumb
     direction 0.707107 -6.34962e-011 0.707107   
     length 0.773206   
     axis -90 45 2.85299e-015   XYZ
    dof rx rz
    limits (-45.0 45.0)
           (-45.0 45.0)
  end
  begin
     id 24 
     name rclavicle
     direction -0.898763 0.414256 -0.143584   
     length 3.5176  
     axis 0 0 0   XYZ 
    dof ry rz
    limits (-10.0 20.0)
           (-20.0 0.0)
  end
  begin
     id 25 
     name rhumerus
     direction -1 -4.48971e-011 1.129e-027  
     length 5.25035   
     axis 180 30 90   XYZ
    dof rx ry rz
    limits (-90.0 60.0)
           (-90.0 90.0)
           (-90.0 90.0)
  end
  begin
     id 26 
     name rradius
     direction -1 -4.48955e-011 6.34664e-027   
     length 3.58884   
     axis 180 30 90   XYZ
    dof rx
    limits (-10.0 170.0)
  end
  begin
     id 27 
     name rwrist
     direction -1 -4.48966e-011 9.54866e-027   
     length 1.79442   
     axis -7.69462e-015 -90 -90   XYZ
    dof ry
    limits (-180.0 0.0)
  end
  begin
     id 28
     name rhand
     direction -1 -4.48973e-011 1.90973e-026   
     length 0.779235   
     axis -1.21857e-014 -90 -90   XYZ
    dof rx rz
    limits (-90.0 90.0)
           (-45.0 45.0)
  end
  begin
     id 29
     name rfingers
     direction -1 -4.48984e-011 3.81946e-026   
     length 0.62824   
     axis -2.43714e-014 -90 -90   XYZ
    dof rx
    limits (0.0 90.0)
  end
  begin
     id 30
     name rthumb
     direction -0.707107 -6.34968e-011 0.707107   
     length 0.90203   
     axis -90 -45 -2.85299e-015   XYZ
    dof rx rz
    limits (-45.0 45.0)
           (-45.0 45.0)
  end
:hierarchy
  begin
    root lhipjoint rhipjoint lowerback
    lhipjoint lfemur
    lfemur ltibia
    ltibia lfoot
    lfoot ltoes
    rhipjoint rfemur
    rfemur rtibia
    rtibia rfoot
    rfoot rtoes
    lowerback upperback
    upperback thorax
    thorax lowerneck lclavicle rclavicle
    lowerneck upperneck
    upperneck head
    lclavicle lhumerus
    lhumerus lradius
    lradius lwrist
    lwrist lhand lthumb
    lhand lfingers
    rclavicle rhumerus
    rhumerus rradius
    rradius rwrist
    rwrist rhand rthumb
    rhand rfingers
  end

#!OML:ASF I:\Random Stuff\random\construction\7_22_03\Session 2\subj1.ASF
:FULLY-SPECIFIED
:DEGREES
249
root -7.69676 17.6729 -0.698307 -171.968 82.3717 -180.578
lowerback 5.09605 -0.235794 4.10491
upperback 0.993557 0.0245321 2.61403
thorax -1.83641 0.0227735 0.38467
lowerneck -18.199 -5.16204 -4.17656
upperneck 44.8274 -4.81958 1.96491
head 21.4186 -1.49564 0.999379
rclavicle -1.66979e-014 -2.94201e-014
rhumerus -38.8514 22.2995 -83.4755
rradius 57.4532
rwrist 3.55491
rhand -24.1593 29.1902
rfingers 7.12502
rthumb 2.32348 -0.776932
lclavicle -1.66979e-014 -2.94201e-014
lhumerus -32.8374 -4.66274 90.9824
lradius 44.2949
lwrist 31.1652
lhand -19.6127 54.4275
lfingers 7.12502
lthumb 6.71375 84.301
rfemur -13.4568 13.6569 21.704
rtibia 20.6418
rfoot -10.9352 -24.8851
rtoes -7.21908
lfemur -20.3932 -14.9142 -11.9087
ltibia 22.2817
lfoot -11.4289 12.5453
ltoes -31.1165
250
root -7.67766 17.6733 -0.733902 -171.315 82.4807 -180.03
lowerback 4.98006 -0.248199 4.02001
upperback 0.983801 -0.0064616 2.57028
thorax -1.78219 0.00736321 0.388752
lowerneck -18.2878 -5.12396 -4.17605
upperneck 44.8272 -4.84317 2.12776
head 21.4572 -1.48496 1.07736
rclavicle 1.80894e-014 -1.59028e-014
rhumerus -38.8409 21.9243 -82.783
rradius 58.1795
rwrist 4.75771
rhand -23.142 29.6958
rfingers 7.12502
rthumb 3.30596 -0.258288
lclavicle 1.80894e-014 -1.59028e-014
lhumerus -32.6528 -4.73328 90.785
lradius 44.1936
lwrist 30.8889
lhand -19.5512 54.0375
lfingers 7.12502
lthumb 6.77311 83.9092
rfemur -13.4072 14.4968 21.613
rtibia 20.5289
rfoot -10.8892 -25.5897
rtoes -6.98192
lfemur -20.4847 -14.4004 -12.0252
ltibia 22.4659
lfoot -11.6025 12.1737
ltoes -30.9668
251
root -7.65648 17.6717 -0.768386 -170.22 82.5832 -179.019
lowerback 4.85043 -0.290967 3.96829
upperback 0.967417 -0.0748113 2.56017
thorax -1.728 -0.0264537 0.411184
lowerneck -18.3407 -5.05007 -4.12358
upperneck 44.8266 -4.762 2.14343
head 21.4663 -1.44677 1.09276
rclavicle -1.13307e-014 -1.03368e-014
rhumerus -39.0926 21.5727 -82.1152
rradius 59.3268
rwrist 5.31335
rhand -22.7097 30.3728
rfingers 7.12502
rthumb 3.72348 0.425564
lclavicle -1.13307e-014 -1.03368e-014
lhumerus -32.5725 -4.59944 90.58
lradius 44.1883
lwrist 30.7823
lhand -19.666 54.1391
lfingers 7.12502
lthumb 6.66228 84.0143
rfemur -13.3287 15.4564 21.5875
rtibia 20.381
rfoot -10.8266 -26.4249
rtoes -6.80462
lfemur -20.5768 -14.0653 -12.0513
ltibia 22.6916
lfoot -11.7483 12.0047
ltoes -31.0091
252
root -7.63617 17.6706 -0.802463 -169.093 82.6413 -177.955
lowerback 4.74159 -0.379752 3.92296
upperback 0.946101 -0.201183 2.5767
thorax -1.69159 -0.0891571 0.460947
lowerneck -18.4642 -4.93437 -4.04005
upperneck 44.9201 -4.53315 1.98752
head 21.5499 -1.3683 1.04771
rclavicle -1.68967e-014 1.74931e-014
rhumerus -39.2936 21.6743 -81.5438
rradius 60.4196
rwrist 4.69458
rhand -22.7895 30.6023
rfingers 7.12502
rthumb 3.64641 0.653794
lclavicle -1.68967e-014 1.74931e-014
lhumerus -32.5329 -4.27237 90.3633
lradius 44.2104
lwrist 30.511
lhand -19.7792 54.2002
lfingers 7.12502
lthumb 6.55298 84.0789
rfemur -13.2303 16.1204 21.588
rtibia 20.2171
rfoot -10.7731 -27.0307
rtoes -6.99954
lfemur -20.6645 -13.7594 -12.0738
ltibia 22.9188
lfoot -11.8702 11.8056
ltoes -31.4805
253
root -7.62011 17.6707 -0.837033 -168.231 82.7209 -177.163
lowerback 4.67381 -0.453886 3.87447
upperback 0.902131 -0.306555 2.55632
thorax -1.70093 -0.142733 0.47332
lowerneck -18.5786 -4.83308 -3.94108
upperneck 45.0599 -4.32514 1.83079
head 21.6679 -1.29253 0.99648
rclavicle 2.40529e-014 1.82882e-014
rhumerus -39.4157 22.054 -81.0714
rradius 61.4374
rwrist 3.13092
rhand -22.6038 30.3767
rfingers 7.12502
rthumb 3.82568 0.431324
lclavicle 2.40529e-014 1.82882e-014
lhumerus -32.4225 -3.95385 90.0954
lradius 44.0165
lwrist 30.1215
lhand -19.8007 53.903
lfingers 7.12502
lthumb 6.53226 83.7823
rfemur -13.1609 16.3808 21.5557
rtibia 20.0677
rfoot -10.7496 -27.2348
rtoes -7.1848
lfemur -20.7487 -13.2573 -12.1595
ltibia 23.1056
lfoot -11.9923 11.3742
ltoes -31.4308
254
root -7.60691 17.6741 -0.87303 -167.934 82.8605 -176.984
lowerback 4.56366 -0.452233 3.83474
upperback 0.844063 -0.316173 2.45881
thorax -1.69946 -0.149675 0.395296
lowerneck -18.5782 -4.80784 -3.91632
upperneck 45.0459 -4.2857 1.79683
head 21.6517 -1.28109 0.981694
rclavicle -1.35174e-014 -1.27222e-014
rhumerus -39.5626 22.2657 -80.547
rradius 62.4938
rwrist 1.48037
rhand -22.0543 30.0792
rfingers 7.12502
rthumb 4.35633 0.144034
lclavicle -1.35174e-014 -1.27222e-014
lhumerus -32.4355 -3.60077 89.794
lradius 44.24
lwrist 29.678
lhand -19.789 54.1024
lfingers 7.12502
lthumb 6.54355 83.9813
rfemur -13.1585 16.6324 21.4048
rtibia 19.9309
rfoot -10.7642 -27.3652
rtoes -7.04363
lfemur -20.8508 -12.7557 -12.3354
ltibia 23.2526
lfoot -12.1101 11.0032
ltoes -31.2072
